<?xml version="1.0" encoding="utf-8"?>
<!-- Generator: Adobe Illustrator 21.0.0, SVG Export Plug-In . SVG Version: 6.00 Build 0)  -->
<svg version="1.1" id="Capa_1" xmlns="http://www.w3.org/2000/svg" xmlns:xlink="http://www.w3.org/1999/xlink" x="0px" y="0px"
	 viewBox="0 0 100 100" style="enable-background:new 0 0 100 100;" xml:space="preserve">
<style type="text/css">
	.st0{fill:#5B85AA;}
	.st1{fill:#FFFFFF;}
</style>
<circle class="st0" cx="50" cy="50" r="50"/>
<g>
	<path class="st1" d="M65,45H40c-0.6,0-1,0.4-1,1s0.4,1,1,1h25c0.6,0,1-0.4,1-1S65.6,45,65,45z"/>
	<path class="st1" d="M40,39h10c0.6,0,1-0.4,1-1s-0.4-1-1-1H40c-0.6,0-1,0.4-1,1S39.4,39,40,39z"/>
	<path class="st1" d="M65,53H40c-0.6,0-1,0.4-1,1s0.4,1,1,1h25c0.6,0,1-0.4,1-1S65.6,53,65,53z"/>
	<path class="st1" d="M65,61H40c-0.6,0-1,0.4-1,1s0.4,1,1,1h25c0.6,0,1-0.4,1-1S65.6,61,65,61z"/>
	<path class="st1" d="M65,69H40c-0.6,0-1,0.4-1,1s0.4,1,1,1h25c0.6,0,1-0.4,1-1S65.6,69,65,69z"/>
	<path class="st1" d="M69,34.6V20H26v55h5v5h43V39.6L69,34.6z M60,28.4l9,9l1.6,1.6H60V28.4z M28,73V22h39v10.6L59.4,25H31v48H28z
		 M33,78v-3V27h25v14h14v37H33z"/>
</g>
</svg>
