<?xml version="1.0" encoding="utf-8"?>
<!-- Generator: Adobe Illustrator 21.0.0, SVG Export Plug-In . SVG Version: 6.00 Build 0)  -->
<svg version="1.1" id="Capa_1" xmlns="http://www.w3.org/2000/svg" xmlns:xlink="http://www.w3.org/1999/xlink" x="0px" y="0px"
	 viewBox="0 0 100 100" style="enable-background:new 0 0 100 100;" xml:space="preserve">
<style type="text/css">
	.st0{fill:#7FB069;}
	.st1{fill:#FFFFFF;}
</style>
<circle class="st0" cx="50" cy="50" r="50"/>
<g>
	<path class="st1" d="M43.4,37H67c0.6,0,1-0.4,1-1s-0.4-1-1-1H43.4c-0.6,0-1,0.4-1,1S42.9,37,43.4,37z"/>
	<path class="st1" d="M43.4,52H67c0.6,0,1-0.4,1-1s-0.4-1-1-1H43.4c-0.6,0-1,0.4-1,1S42.9,52,43.4,52z"/>
	<path class="st1" d="M43.4,67H67c0.6,0,1-0.4,1-1s-0.4-1-1-1H43.4c-0.6,0-1,0.4-1,1S42.9,67,43.4,67z"/>
	<path class="st1" d="M79,20H21c-0.6,0-1,0.4-1,1v58c0,0.6,0.4,1,1,1h58c0.6,0,1-0.4,1-1V21C80,20.4,79.6,20,79,20z M78,78H22V22h56
		V78z"/>
	<polygon class="st1" points="32.5,38.5 34.9,37.2 37.4,38.5 36.9,35.8 38.9,33.9 36.1,33.5 34.9,31 33.7,33.5 31,33.9 33,35.8 	"/>
	<polygon class="st1" points="32.5,53.6 34.9,52.3 37.4,53.6 36.9,50.9 38.9,48.9 36.1,48.5 34.9,46.1 33.7,48.5 31,48.9 33,50.9 	
		"/>
	<polygon class="st1" points="32.5,69 34.9,67.7 37.4,69 36.9,66.3 38.9,64.4 36.1,64 34.9,61.5 33.7,64 31,64.4 33,66.3 	"/>
</g>
</svg>
