<?xml version="1.0" encoding="iso-8859-1"?>
<!-- Generator: Adobe Illustrator 18.0.0, SVG Export Plug-In . SVG Version: 6.00 Build 0)  -->
<!DOCTYPE svg PUBLIC "-//W3C//DTD SVG 1.1//EN" "http://www.w3.org/Graphics/SVG/1.1/DTD/svg11.dtd">
<svg version="1.1" id="Capa_1" xmlns="http://www.w3.org/2000/svg" xmlns:xlink="http://www.w3.org/1999/xlink" x="0px" y="0px"
	 viewBox="0 0 59.137 59.137" style="enable-background:new 0 0 59.137 59.137;" xml:space="preserve">
<g>
	<path d="M24.695,50.614c-2.388-0.563-4.287-2.089-5.209-4.189c-0.222-0.505-0.811-0.734-1.318-0.513
		c-0.505,0.222-0.735,0.812-0.513,1.318c1.177,2.68,3.577,4.623,6.583,5.331c0.077,0.019,0.154,0.027,0.23,0.027
		c0.453,0,0.864-0.31,0.972-0.771C25.566,51.279,25.233,50.741,24.695,50.614z"/>
	<path d="M17.765,42.308c0.516,0,0.954-0.396,0.996-0.919c0.075-0.93,0.233-1.876,0.47-2.812c0.135-0.536-0.189-1.08-0.725-1.215
		c-0.535-0.132-1.079,0.189-1.215,0.725c-0.263,1.043-0.439,2.1-0.523,3.141c-0.044,0.551,0.366,1.033,0.916,1.077
		C17.711,42.307,17.738,42.308,17.765,42.308z"/>
	<path d="M30.829,8.875c-0.418,0.418-0.943,0.669-1.479,0.707c-0.49,0.037-0.915-0.114-1.217-0.416
		c-0.391-0.391-1.023-0.391-1.414,0s-0.391,1.023,0,1.414c0.671,0.672,1.567,1.002,2.495,1.002c1.065,0,2.172-0.437,3.029-1.293
		c0.391-0.391,0.391-1.023,0-1.414S31.219,8.485,30.829,8.875z"/>
	<path d="M47.816,37.376c-0.603-1.865-1.604-3.588-2.573-5.254c-0.343-0.591-0.685-1.177-1.003-1.764
		c-0.277-0.511-0.564-1.023-0.854-1.54c-1.128-2.016-2.294-4.1-2.976-6.233c-0.437-1.368-0.819-2.795-1.188-4.175
		c-0.35-1.308-0.712-2.66-1.125-3.982c-0.155-0.497-0.301-1.012-0.448-1.532c-0.429-1.518-0.873-3.087-1.615-4.493
		c-1.235-2.337-3.774-3.81-6.443-3.797h-0.043c-0.027,0-0.053,0-0.081,0c-0.033,0-0.065,0.006-0.097,0.007
		c-0.684-1.718-1.807-3.607-3.6-4.508c-0.495-0.247-1.095-0.049-1.342,0.445c-0.248,0.493-0.049,1.094,0.445,1.342
		c0.938,0.471,1.806,1.575,2.466,3.049c-1.794,0.557-3.348,1.787-4.233,3.462c-0.743,1.406-1.187,2.976-1.616,4.494
		c-0.147,0.52-0.292,1.034-0.447,1.53c-0.413,1.321-0.774,2.672-1.125,3.979c-0.37,1.381-0.752,2.809-1.189,4.178
		c-0.682,2.135-1.849,4.219-2.977,6.236c-0.289,0.515-0.575,1.027-0.852,1.537c-0.319,0.586-0.66,1.173-1.003,1.764
		c-0.969,1.666-1.97,3.389-2.573,5.253c-1.053,3.259-0.953,6.931,0.283,10.339c2.08,5.735,7.432,9.99,13.967,11.102
		c1.246,0.212,2.541,0.32,3.9,0.32c0.08,0,0.161,0,0.243,0c1.309,0,2.604-0.108,3.85-0.32c6.535-1.113,11.887-5.367,13.966-11.102
		C48.768,44.307,48.869,40.635,47.816,37.376z M45.652,47.034c-1.835,5.06-6.595,8.82-12.422,9.812
		c-1.17,0.199-2.398,0.304-3.699,0.291c-1.23,0.01-2.453-0.092-3.623-0.291c-5.828-0.992-10.587-4.752-12.423-9.812
		c-1.085-2.993-1.177-6.204-0.26-9.042c0.537-1.661,1.483-3.289,2.398-4.864c0.353-0.607,0.704-1.211,1.031-1.814
		c0.273-0.502,0.556-1.008,0.84-1.516c1.177-2.103,2.394-4.277,3.137-6.604c0.452-1.415,0.84-2.866,1.216-4.269
		c0.345-1.287,0.701-2.618,1.102-3.899c0.161-0.514,0.311-1.045,0.463-1.583c0.401-1.418,0.816-2.885,1.46-4.104
		c0.648-1.226,1.81-2.121,3.132-2.511c0.112,0.408,0.214,0.826,0.294,1.26c0.089,0.481,0.51,0.817,0.982,0.817
		c0.061,0,0.122-0.005,0.183-0.017c0.543-0.101,0.902-0.623,0.801-1.166c-0.049-0.261-0.127-0.639-0.242-1.09
		c1.789,0.126,3.416,1.144,4.241,2.706c0.644,1.218,1.058,2.685,1.459,4.103c0.152,0.538,0.303,1.069,0.463,1.584
		c0.401,1.283,0.758,2.615,1.103,3.903c0.375,1.402,0.764,2.852,1.215,4.266c0.743,2.326,1.959,4.5,3.136,6.602
		c0.285,0.509,0.568,1.014,0.842,1.518c0.328,0.603,0.678,1.207,1.031,1.813c0.916,1.575,1.862,3.204,2.399,4.864
		C46.83,40.829,46.738,44.041,45.652,47.034z"/>
</g>
<g>
</g>
<g>
</g>
<g>
</g>
<g>
</g>
<g>
</g>
<g>
</g>
<g>
</g>
<g>
</g>
<g>
</g>
<g>
</g>
<g>
</g>
<g>
</g>
<g>
</g>
<g>
</g>
<g>
</g>
</svg>
