<?xml version="1.0" encoding="utf-8"?>
<!-- Generator: Adobe Illustrator 21.0.0, SVG Export Plug-In . SVG Version: 6.00 Build 0)  -->
<svg version="1.1" id="Capa_1" xmlns="http://www.w3.org/2000/svg" xmlns:xlink="http://www.w3.org/1999/xlink" x="0px" y="0px"
	 viewBox="0 0 60 60" style="enable-background:new 0 0 60 60;" xml:space="preserve">
<path d="M44.2,55.2V51c0-3-1.7-5.7-4.3-7L34,41c0.1-0.3,0.2-0.7,0-1.1c-0.2-0.6-0.8-1-1.4-1h-1.9c0-0.1-0.1-0.1-0.1-0.2
	c0-0.1-0.1-0.2-0.1-0.3c-0.1-0.2-0.1-0.4-0.1-0.6v-2.9c0.2-0.2,0.4-0.5,0.6-0.8c1.1-1.5,1.9-3.2,2.6-5c1.2-0.6,2-1.8,2-3.1v-3.5
	c0-0.8-0.3-1.6-0.9-2.3v-4.6c0-0.2,0.1-0.9-0.1-1.9c1.1-0.4,2.4-0.7,3.7-0.7c8.5,0.1,8.8,8.5,8.8,8.9c0.1,6.6,4.1,12.9,5.8,15.4
	c0.1,0.2,0.2,0.5,0.1,0.7c0,0.1-0.2,0.4-0.5,0.5c-1.5,0.6-3.4,0.4-3.5,0.4h-6c-0.6,0-1.1,0.3-1.4,0.8c-0.3,0.5-0.3,1-0.1,1.5
	c0.3,0.5,0.8,1.3,1.5,1.7l9.4,4.1c0.3,0.2,1.2-1.3,0.7-1.5L44,41.3c-0.2-0.1-0.4-0.3-0.6-0.7l5.7,0c0.1,0,2.4,0.2,4.3-0.6
	c0.7-0.3,1.2-0.9,1.4-1.7c0.2-0.8,0.1-1.5-0.4-2.2c-1.6-2.3-5.4-8.3-5.5-14.4c0-0.1-0.3-10.5-10.6-10.6c-1.5,0-2.9,0.3-4.2,0.7
	c-0.3-0.7-0.7-1.4-1.3-2.1c-1.8-2-4.7-3.1-8.6-3.1s-6.8,1-8.6,3.1c-2.1,2.3-1.9,5.2-1.8,5.7v4.6c-0.6,0.6-0.9,1.4-0.9,2.3v3.5
	c0,1.1,0.5,2,1.3,2.7c0.8,3.1,2.5,5.5,3,6.3v2.9c0,0.8-0.5,1.6-1.2,2L8.4,44c-1,0.6-1.9,1.3-2.5,2.2c0.3,0.5,0.7,1,1.1,1.5
	c0.5-0.9,1.3-1.6,2.3-2.2l7.7-4.2c1.3-0.7,2.1-2.1,2.1-3.5v-3.5L18.9,34c0,0-2.1-2.6-3-6.1l-0.1-0.3l-0.3-0.2
	c-0.5-0.3-0.8-0.9-0.8-1.5v-3.5c0-0.5,0.2-0.9,0.6-1.3l0.3-0.3v-5.4l0-0.1c0,0-0.3-2.4,1.4-4.4c1.4-1.6,3.9-2.5,7.3-2.5
	c3.4,0,5.8,0.8,7.3,2.5c0.7,0.8,1.1,1.7,1.3,2.5c0,0.1,0,0.1,0,0.2c0,0.1,0,0.1,0,0.2c0,0.1,0,0.1,0,0.2c0,0,0,0.1,0,0.1
	c0,0.1,0,0.2,0,0.3c0,0,0,0,0,0c0,0.1,0,0.2,0,0.3c0,0,0,0,0,0c0,0.1,0,0.1,0,0.2c0,0,0,0,0,0c0,0.2,0,0.3,0,0.3l0,5.5l0.3,0.3
	c0.4,0.3,0.6,0.8,0.6,1.3v3.5c0,0.8-0.5,1.4-1.2,1.6l-0.4,0.1L32,28.1c-0.6,1.9-1.3,3.3-2.5,4.9c-0.3,0.4-0.5,0.7-0.7,0.9l-0.2,0.2
	v3.6c0,0.2,0,0.4,0.1,0.6c0,0,0,0.1,0,0.1c0,0.2,0.1,0.3,0.1,0.5c0,0,0,0.1,0,0.1c0.1,0.2,0.1,0.4,0.2,0.5c0,0,0,0,0,0.1
	c0.1,0.2,0.3,0.4,0.4,0.6l0.2,0.2h0c0.3,0.3,0.6,0.5,1,0.7l8.3,4.1c2.1,1,3.4,3.1,3.4,5.4v4.3H44.2z"/>
<g>
	<path d="M30,2.5c15.2,0,27.5,12.3,27.5,27.5S45.2,57.5,30,57.5S2.5,45.2,2.5,30S14.8,2.5,30,2.5 M30,0.5C13.7,0.5,0.5,13.7,0.5,30
		S13.7,59.5,30,59.5S59.5,46.3,59.5,30S46.3,0.5,30,0.5L30,0.5z"/>
</g>
</svg>
